<svg xmlns="http://www.w3.org/2000/svg" viewBox="0 0 512 512"><path d="m0 0h512v512h-512z" style="&#10;    fill: transparent;&#10;"/><g fill="#fff"><path d="m257.9 470.62c-2.13 0-4.26-.81-5.89-2.44-3.25-3.25-3.25-8.53 0-11.78l199.83-199.83c.32-.32.32-.83 0-1.15l-199.83-199.83c-3.25-3.25-3.25-8.53 0-11.78s8.53-3.25 11.78 0l199.83 199.83c6.81 6.81 6.81 17.89 0 24.71l-199.83 199.83c-1.63 1.63-3.76 2.44-5.89 2.44z"/><path d="m416.14 256c0 .27-.01.53-.04.79s-.06.53-.12.78c-.05.27-.12.53-.19.78-.05.19-.12.37-.19.56-.01.05-.03.09-.05.14-.1.28-.23.54-.36.79-.12.22-.24.44-.38.65-.15.26-.33.49-.53.73-.06.09-.14.18-.23.27-.15.18-.32.35-.49.51l-177.21 178.49s-.06.06-.1.1c-.2.21-.42.4-.63.58-.22.18-.45.35-.68.5-1.4.92-3 1.38-4.6 1.38s-3.2-.45-4.59-1.37c-.45-.29-.88-.64-1.28-1.05t-.03-.01l-178.73-178.73c-3.24-3.25-3.24-8.53 0-11.79l178.74-178.74c3.25-3.24 8.53-3.24 11.79 0 3.24 3.25 3.24 8.53 0 11.79l-172.85 172.85 166.95 166.95 157.48-158.62h-157.46c-4.6 0-8.33-3.73-8.33-8.33s3.73-8.33 8.33-8.33h177.46c.27 0 .53.01.79.04s.53.06.78.12c.27.05.53.12.78.19.19.05.37.12.56.19.05.01.09.03.14.05.28.1.54.23.79.36.22.12.44.24.65.38.03 0 .04.01.06.04.12.08.22.15.32.22.12.09.23.17.35.27.09.06.18.14.27.23.12.1.24.22.36.33.19.19.38.4.56.6.14.18.28.37.41.56.04.05.08.1.1.14.15.23.29.47.42.72.17.31.31.64.44.97.06.17.13.36.18.53.09.28.15.56.21.86.04.18.06.37.09.55.04.32.05.64.05.97z"/></g></svg>