<?xml version="1.0" encoding="utf-8"?>
<!-- Generator: Adobe Illustrator 24.1.2, SVG Export Plug-In . SVG Version: 6.00 Build 0)  -->
<svg version="1.1" id="Layer_1" xmlns="http://www.w3.org/2000/svg" xmlns:xlink="http://www.w3.org/1999/xlink" x="0px" y="0px"
	 viewBox="0 0 477.6 146" style="enable-background:new 0 0 477.6 146;" xml:space="preserve">
<style type="text/css">
	.st0{fill-rule:evenodd;clip-rule:evenodd;fill:#FFFFFF;}
	.st1{fill-rule:evenodd;clip-rule:evenodd;fill:#FF7A59;}
</style>
<desc>Created with Sketch.</desc>
<g id="Marketing_x2F_Logos_x2F_HubSpot-Primary" transform="translate(0.000000, 1.048420)">
	<polygon id="Fill-1" class="st0" points="58,26.6 58,64.2 24,64.2 24,26.6 7.9,26.6 7.9,116.3 24,116.3 24,79.9 58,79.9 58,116.3 
		74.2,116.3 74.2,26.6 	"/>
	<path id="Fill-2" class="st0" d="M125.8,87.3c0,7.5-6,13.6-13.4,13.6S99,94.8,99,87.3V48.9H83.7v38.4c0,16,12.9,29.1,28.7,29.1
		s28.6-13,28.6-29.1V48.9h-15.2V87.3z"/>
	<path id="Fill-4" class="st0" d="M239.3,52.8c0-7.9,5.1-10.4,10.8-10.4c4.5,0,10.5,3.5,14.4,7.7l10-12c-5-6.9-15.2-11.6-23.5-11.6
		c-16.6,0-28.6,9.9-28.6,26.2c0,30.4,36.6,20.7,36.6,37.7c0,5.2-5,9.9-10.8,9.9c-9.1,0-12-4.5-16.2-9.2l-11,11.8
		c7.1,8.9,15.9,13.4,26.4,13.4c15.8,0,28.5-10,28.5-25.6C275.9,57,239.3,67.5,239.3,52.8"/>
	<path id="Fill-6" class="st0" d="M465.6,102c-9,0-11.6-4-11.6-10.1V65h14.1V51.3H454v-18l-15.5,7.1v54.9c0,14,9.5,21.1,22.6,21.1
		c2,0,4.7-0.1,6.1-0.5l3.8-14.2C469.3,101.8,467.4,102,465.6,102"/>
	<path id="Fill-8" class="st0" d="M184,100.7c-9.6,0-17.4-7.9-17.4-17.7s7.8-17.6,17.4-17.6s17.4,7.9,17.4,17.6
		S193.7,100.7,184,100.7 M184.1,49.3c-7.6,0-12.9,2.2-18,7.3V27.1h-15.3v54.7c0,20.5,14.6,34.5,31,34.5
		c18.2,0.1,34.2-14.2,34.2-33.5C216,63.9,201.3,49.3,184.1,49.3"/>
	<g id="Group-12" transform="translate(277.614795, 45.510850)">
		<g id="Clip-11">
		</g>
		<path id="Fill-10" class="st0" d="M41.1,54c-9.6,0-17.4-7.9-17.4-17.7s7.8-17.7,17.4-17.7s17.4,7.9,17.4,17.7S50.7,54,41.1,54
			 M73.1,36.5C73.1,17.3,57.1,3,38.9,3c-16.4,0-31,14-31,34.5v54.7h15.3V62.7c5.1,5.1,10.4,7.3,18,7.3
			C58.4,70.1,73.1,55.5,73.1,36.5"/>
	</g>
	<g id="Group-15" transform="translate(295.900800, 1.653425)">
		<g id="Clip-14">
		</g>
		<path id="Fill-13" class="st1" d="M99.2,97.5c-9.6,0-17.3-7.9-17.3-17.6s7.8-17.6,17.3-17.6s17.3,8,17.3,17.7
			S108.8,97.5,99.2,97.5 M104.4,46.1V30.5c4-1.9,6.8-6.1,6.8-10.8v-0.4c0-6.6-5.3-12-11.9-12H99c-6.5,0-11.9,5.4-11.9,12v0.4
			c0,4.8,2.8,8.9,6.8,10.9v15.6c-6,0.9-11.5,3.4-16,7.1L35.6,19.9c0.3-1.1,0.5-2.2,0.5-3.4c0-7.5-6-13.6-13.4-13.6S9.3,9,9.3,16.4
			c0,7.5,6,13.6,13.4,13.6c2.4,0,4.6-0.7,6.6-1.8L71,61.1C67.5,66.5,65.4,73,65.4,80c0,7.3,2.3,14.1,6.1,19.7l-12.6,12.8
			c-1-0.3-2-0.5-3.1-0.5c-6.1,0-11,5-11,11.1c0,6.2,4.9,11.1,11,11.1s11-5,11-11.1c0-1.1-0.2-2.2-0.5-3.2l12.5-12.7
			c5.7,4.4,12.8,7,20.5,7c18.6,0,33.7-15.3,33.7-34.2C133,62.8,120.6,48.7,104.4,46.1"/>
	</g>
</g>
</svg>
